<mxfile host="app.diagrams.net" modified="2023-02-15T15:28:47.907Z" agent="5.0 (Windows NT 10.0; Win64; x64) AppleWebKit/537.36 (KHTML, like Gecko) Chrome/109.0.0.0 Safari/537.36" etag="Ada0s6BMmoeyawcVacVA" version="20.8.20" type="github">
  <diagram name="Página-1" id="faZqavo2saKHAUYqB46W">
    <mxGraphModel dx="633" dy="569" grid="0" gridSize="10" guides="1" tooltips="1" connect="1" arrows="1" fold="1" page="1" pageScale="1" pageWidth="827" pageHeight="1169" math="0" shadow="0">
      <root>
        <mxCell id="0" />
        <mxCell id="1" parent="0" />
        <mxCell id="caubpSiTxFr4B8Om-Vba-1" value="Pedro&lt;br&gt;(Administrador)" style="shape=umlActor;verticalLabelPosition=bottom;verticalAlign=top;html=1;outlineConnect=0;aspect=fixed;" vertex="1" parent="1">
          <mxGeometry x="42" y="285" width="45" height="90" as="geometry" />
        </mxCell>
        <mxCell id="caubpSiTxFr4B8Om-Vba-2" value="" style="whiteSpace=wrap;html=1;aspect=fixed;" vertex="1" parent="1">
          <mxGeometry x="136" y="112" width="511" height="511" as="geometry" />
        </mxCell>
        <mxCell id="caubpSiTxFr4B8Om-Vba-7" value="UC001 - Registrar movimentação" style="ellipse;whiteSpace=wrap;html=1;aspect=fixed;" vertex="1" parent="1">
          <mxGeometry x="183" y="179" width="110" height="73.06" as="geometry" />
        </mxCell>
        <mxCell id="caubpSiTxFr4B8Om-Vba-8" value="UC001 - Registrar movimentação" style="ellipse;whiteSpace=wrap;html=1;aspect=fixed;" vertex="1" parent="1">
          <mxGeometry x="322" y="125" width="110" height="73.06" as="geometry" />
        </mxCell>
        <mxCell id="caubpSiTxFr4B8Om-Vba-9" value="UC001 - Registrar movimentação" style="ellipse;whiteSpace=wrap;html=1;aspect=fixed;" vertex="1" parent="1">
          <mxGeometry x="322" y="220" width="110" height="73.06" as="geometry" />
        </mxCell>
        <mxCell id="caubpSiTxFr4B8Om-Vba-10" value="UC001 - Registrar movimentação" style="ellipse;whiteSpace=wrap;html=1;aspect=fixed;" vertex="1" parent="1">
          <mxGeometry x="486" y="220" width="110" height="73.06" as="geometry" />
        </mxCell>
        <mxCell id="caubpSiTxFr4B8Om-Vba-11" value="UC001 - Registrar movimentação" style="ellipse;whiteSpace=wrap;html=1;aspect=fixed;" vertex="1" parent="1">
          <mxGeometry x="483" y="125" width="110" height="73.06" as="geometry" />
        </mxCell>
      </root>
    </mxGraphModel>
  </diagram>
</mxfile>
